<?xml version="1.0" standalone="no"?>
<!DOCTYPE svg PUBLIC "-//W3C//DTD SVG 20010904//EN"
 "http://www.w3.org/TR/2001/REC-SVG-20010904/DTD/svg10.dtd">
<svg version="1.0" xmlns="http://www.w3.org/2000/svg"
 width="440.000000pt" height="440.000000pt" viewBox="0 0 440.000000 440.000000"
 preserveAspectRatio="xMidYMid meet">
<metadata>
Created by potrace 1.14, written by Peter Selinger 2001-2017
</metadata>
<g transform="translate(0.000000,440.000000) scale(0.100000,-0.100000)"
fill="#000000" stroke="none">
<path d="M366 3632 c-214 -322 -274 -647 -175 -947 129 -389 515 -694 946
-747 l94 -11 57 -118 57 -117 183 -86 c101 -47 186 -86 191 -86 4 0 55 -153
114 -339 l106 -339 -43 -101 c-32 -73 -41 -102 -33 -109 7 -5 46 -28 88 -50
l76 -42 112 0 111 0 0 549 0 549 -72 -20 c-40 -11 -110 -31 -155 -43 l-83 -23
5 36 c13 97 77 1083 71 1090 -13 13 -189 15 -261 2 -157 -27 -351 -93 -579
-199 l-89 -41 -106 25 c-117 28 -281 101 -358 160 -118 89 -211 228 -255 382
-19 66 -23 102 -23 233 1 163 12 241 60 396 13 43 23 79 21 81 -1 1 -28 -37
-60 -85z"/>
<path d="M4030 3677 c0 -2 11 -35 23 -73 45 -130 61 -238 61 -399 0 -114 -4
-167 -18 -220 -23 -89 -96 -229 -153 -294 -90 -103 -270 -200 -466 -251 l-87
-23 -123 55 c-328 150 -604 218 -767 190 -89 -15 -150 -40 -150 -61 -1 -9 -20
-151 -44 -316 -24 -165 -43 -300 -42 -301 0 -1 72 25 159 56 86 32 157 56 157
54 0 -1 -7 -36 -16 -76 -43 -204 -294 -1452 -294 -1464 0 -11 20 -14 95 -14
93 0 98 1 168 40 40 22 78 44 85 48 10 7 4 29 -28 102 -22 51 -40 100 -40 108
0 8 43 152 96 321 52 168 97 314 100 323 3 10 24 26 47 36 23 10 107 49 188
86 l145 67 62 123 62 123 88 6 c225 15 485 143 677 333 324 320 390 746 181
1165 -61 121 -166 284 -166 256z"/>
</g>
</svg>
